<svg width="189" height="42" viewBox="0 0 189 42" fill="none" xmlns="http://www.w3.org/2000/svg">
<path d="M67.2131 2.5011C67.5179 1.87463 68.3977 1.87463 68.7022 2.5011L71.1366 7.50882C71.2575 7.75737 71.4907 7.92973 71.7609 7.96982L77.2062 8.77797C77.8868 8.87899 78.1582 9.72856 77.6654 10.2159L73.7266 14.1114C73.5306 14.3051 73.4412 14.5842 73.4876 14.8578L74.417 20.3601C74.5332 21.0488 73.8214 21.5739 73.2124 21.2487L68.3442 18.6491C68.1021 18.52 67.8132 18.52 67.5714 18.6491L62.7032 21.2487C62.0942 21.5739 61.3821 21.0488 61.4985 20.3601L62.428 14.8578C62.4741 14.5842 62.3847 14.3051 62.189 14.1114L58.2499 10.2159C57.757 9.72856 58.0285 8.87899 58.709 8.77797L64.1544 7.96982C64.4245 7.92973 64.6581 7.75737 64.7787 7.50882L67.2131 2.5011Z" fill="#F1A246"/>
<path d="M94.6096 2.5011C94.9141 1.87463 95.7938 1.87463 96.0983 2.5011L98.5328 7.50882C98.6537 7.75737 98.8872 7.92973 99.1574 7.96982L104.603 8.77797C105.283 8.87899 105.554 9.72856 105.062 10.2159L101.123 14.1114C100.927 14.3051 100.838 14.5842 100.884 14.8578L101.813 20.3601C101.93 21.0488 101.218 21.5739 100.609 21.2487L95.7404 18.6491C95.4986 18.52 95.2097 18.52 94.9675 18.6491L90.0994 21.2487C89.4904 21.5739 88.7786 21.0488 88.8947 20.3601L89.8241 14.8578C89.8703 14.5842 89.7808 14.3051 89.5852 14.1114L85.6464 10.2159C85.1535 9.72856 85.4249 8.87899 86.1055 8.77797L91.5509 7.96982C91.821 7.92973 92.0543 7.75737 92.1752 7.50882L94.6096 2.5011Z" fill="#F1A246"/>
<path d="M122.006 2.5011C122.311 1.87463 123.191 1.87463 123.495 2.5011L125.93 7.50882C126.05 7.75737 126.284 7.92973 126.554 7.96982L131.999 8.77797C132.68 8.87899 132.951 9.72856 132.458 10.2159L128.52 14.1114C128.324 14.3051 128.234 14.5842 128.281 14.8578L129.21 20.3601C129.326 21.0488 128.614 21.5739 128.005 21.2487L123.137 18.6491C122.895 18.52 122.606 18.52 122.364 18.6491L117.496 21.2487C116.887 21.5739 116.175 21.0488 116.292 20.3601L117.221 14.8578C117.267 14.5842 117.178 14.3051 116.982 14.1114L113.043 10.2159C112.55 9.72856 112.821 8.87899 113.502 8.77797L118.947 7.96982C119.218 7.92973 119.451 7.75737 119.572 7.50882L122.006 2.5011Z" fill="#F1A246"/>
<path d="M149.403 2.5011C149.707 1.87463 150.587 1.87463 150.891 2.5011L153.326 7.50882C153.447 7.75737 153.68 7.92973 153.95 7.96982L159.395 8.77797C160.076 8.87899 160.347 9.72856 159.855 10.2159L155.916 14.1114C155.72 14.3051 155.631 14.5842 155.677 14.8578L156.606 20.3601C156.723 21.0488 156.011 21.5739 155.402 21.2487L150.533 18.6491C150.292 18.52 150.002 18.52 149.761 18.6491L144.892 21.2487C144.283 21.5739 143.571 21.0488 143.688 20.3601L144.617 14.8578C144.663 14.5842 144.574 14.3051 144.378 14.1114L140.439 10.2159C139.947 9.72856 140.218 8.87899 140.899 8.77797L146.344 7.96982C146.614 7.92973 146.847 7.75737 146.968 7.50882L149.403 2.5011Z" fill="#F1A246"/>
<path d="M176.797 2.5011C177.102 1.87463 177.982 1.87463 178.286 2.5011L180.721 7.50882C180.841 7.75737 181.075 7.92973 181.345 7.96982L186.79 8.77797C187.471 8.87899 187.742 9.72856 187.249 10.2159L183.311 14.1114C183.115 14.3051 183.025 14.5842 183.072 14.8578L184.001 20.3601C184.117 21.0488 183.405 21.5739 182.796 21.2487L177.928 18.6491C177.686 18.52 177.397 18.52 177.155 18.6491L172.287 21.2487C171.678 21.5739 170.966 21.0488 171.083 20.3601L172.012 14.8578C172.058 14.5842 171.969 14.3051 171.773 14.1114L167.834 10.2159C167.341 9.72856 167.612 8.87899 168.293 8.77797L173.738 7.96982C174.009 7.92973 174.242 7.75737 174.363 7.50882L176.797 2.5011Z" fill="#D2DAEA"/>
<mask id="mask0_2138_10738" style="mask-type:alpha" maskUnits="userSpaceOnUse" x="167" y="2" width="21" height="20">
<path d="M176.797 2.5011C177.102 1.87463 177.982 1.87463 178.286 2.5011L180.721 7.50882C180.841 7.75737 181.075 7.92973 181.345 7.96982L186.79 8.77797C187.471 8.87899 187.742 9.72856 187.249 10.2159L183.311 14.1114C183.115 14.3051 183.025 14.5842 183.072 14.8578L184.001 20.3601C184.117 21.0488 183.405 21.5739 182.796 21.2487L177.928 18.6491C177.686 18.52 177.397 18.52 177.155 18.6491L172.287 21.2487C171.678 21.5739 170.966 21.0488 171.083 20.3601L172.012 14.8578C172.058 14.5842 171.969 14.3051 171.773 14.1114L167.834 10.2159C167.341 9.72856 167.612 8.87899 168.293 8.77797L173.738 7.96982C174.009 7.92973 174.242 7.75737 174.363 7.50882L176.797 2.5011Z" fill="#FBB138"/>
</mask>
<g mask="url(#mask0_2138_10738)">
<path d="M182.09 -1.9375H165.545V29.0779H182.09V-1.9375Z" fill="#F1A246"/>
</g>
<path d="M61.8764 31.441H63.074C63.7734 31.441 64.2115 31.867 64.2115 32.5294C64.2115 33.2062 63.7966 33.6181 63.088 33.6181H61.8764V31.441ZM61.8764 34.6546H63.0043L64.258 37.1532H65.8521L64.4352 34.4413C65.2087 34.1338 65.6564 33.3768 65.6564 32.5013C65.6564 31.1524 64.7706 30.3241 63.2232 30.3241H60.4688V37.1532H61.8764V34.6546ZM68.3689 36.2351C67.9075 36.2351 67.5998 35.9986 67.5998 35.6199C67.5998 35.2603 67.8888 35.0284 68.3969 34.9906L69.4501 34.9243V35.2933C69.4501 35.8422 68.9607 36.2351 68.3689 36.2351ZM67.9215 37.2337C68.5461 37.2337 69.1659 36.9168 69.4456 36.3772H69.4736V37.1532H70.788V33.6653C70.788 32.6431 69.9534 31.9711 68.6718 31.9711C67.3482 31.9711 66.5231 32.6479 66.4719 33.6324H67.7163C67.7815 33.2582 68.1032 33.0027 68.6113 33.0027C69.1239 33.0027 69.4501 33.2773 69.4501 33.7506V34.0866L68.1917 34.1622C66.9473 34.2381 66.2482 34.7728 66.2482 35.6955C66.2482 36.6089 66.9705 37.2337 67.9215 37.2337ZM72.0324 30.911V32.0799H71.3286V33.1212H72.0324V35.7857C72.0324 36.7746 72.489 37.1723 73.6638 37.1723C73.9387 37.1723 74.1716 37.1484 74.3116 37.1154V36.0978C74.2276 36.112 74.1019 36.1217 73.9807 36.1217C73.5798 36.1217 73.3933 35.9369 73.3933 35.5488V33.1212H74.316V32.0799H73.3933V30.911H72.0324ZM77.2293 32.9933C77.8351 32.9933 78.25 33.4382 78.278 34.0866H76.1573C76.2038 33.4524 76.6327 32.9933 77.2293 32.9933ZM78.2965 35.6009C78.1708 35.9889 77.7887 36.2399 77.2898 36.2399C76.5955 36.2399 76.1433 35.743 76.1433 35.019V34.9337H79.5877V34.5124C79.5877 32.9697 78.6694 31.9711 77.2153 31.9711C75.7377 31.9711 74.8057 33.0217 74.8057 34.6404C74.8057 36.2635 75.7284 37.2621 77.2665 37.2621C78.5017 37.2621 79.3964 36.5946 79.5457 35.6009H78.2965ZM82.1465 37.2337C82.8827 37.2337 83.4609 36.8408 83.703 36.2826H83.7266V37.1532H85.0687V30.3241H83.7078V32.9507H83.6798C83.4373 32.3875 82.8783 31.9995 82.1557 31.9995C80.9021 31.9995 80.1095 32.9982 80.1095 34.6071C80.1095 36.2305 80.8973 37.2337 82.1465 37.2337ZM82.6078 33.107C83.2837 33.107 83.717 33.6937 83.717 34.6164C83.717 35.5443 83.2837 36.1217 82.6078 36.1217C81.9228 36.1217 81.5031 35.5488 81.5031 34.6164C81.5031 33.6889 81.9228 33.107 82.6078 33.107ZM91.1093 37.1532H92.447V35.8991H93.3325V34.7586H92.447V30.3241H90.4615C89.0819 32.3827 88.3501 33.5755 87.7627 34.7066V35.8991H91.1093V37.1532ZM88.9887 34.7586C89.5245 33.7409 90.1351 32.771 91.1093 31.3464H91.1373V34.7964H88.9887V34.7586ZM94.9358 37.2101C95.3507 37.2101 95.6864 36.8693 95.6864 36.448C95.6864 36.0222 95.3507 35.6862 94.9358 35.6862C94.5164 35.6862 94.1855 36.0222 94.1855 36.448C94.1855 36.8693 94.5164 37.2101 94.9358 37.2101ZM99.1772 37.3048C100.925 37.3048 101.983 35.9417 101.983 33.6795C101.983 31.1855 100.659 30.168 99.1772 30.168C97.6763 30.168 96.5859 31.176 96.5859 32.5911C96.5859 33.9209 97.5691 34.82 98.8183 34.82C99.6993 34.82 100.366 34.3751 100.608 33.7128H100.636C100.645 35.1799 100.193 36.1737 99.1819 36.1737C98.6178 36.1737 98.2032 35.9133 98.054 35.4258H96.6651C96.842 36.5333 97.8583 37.3048 99.1772 37.3048ZM99.1819 33.76C98.4781 33.76 97.956 33.2489 97.956 32.5342C97.956 31.8433 98.5014 31.3085 99.1959 31.3085C99.8858 31.3085 100.431 31.8528 100.431 32.5578C100.431 33.2582 99.8902 33.76 99.1819 33.76ZM103.638 38.6203L106.024 30.3241H104.77L102.379 38.6203H103.638ZM109.082 37.3048C110.624 37.3048 111.682 36.3252 111.682 34.8817C111.682 33.58 110.764 32.6431 109.482 32.6431C108.802 32.6431 108.247 32.9222 107.968 33.3813H107.94L108.103 31.46H111.277V30.3241H106.984L106.677 34.3328H107.902C108.131 33.9209 108.55 33.6653 109.091 33.6653C109.827 33.6653 110.34 34.1813 110.34 34.9146C110.34 35.6577 109.827 36.1737 109.086 36.1737C108.438 36.1737 107.94 35.7857 107.86 35.1941H106.56C106.597 36.4338 107.641 37.3048 109.082 37.3048ZM114.241 33.5706C114.241 34.3328 114.731 34.8248 115.695 35.0332L116.548 35.2128C117.038 35.3266 117.21 35.4778 117.21 35.7475C117.21 36.079 116.893 36.2919 116.381 36.2919C115.84 36.2919 115.528 36.0554 115.444 35.6106H114.115C114.204 36.6089 115.001 37.2621 116.381 37.2621C117.667 37.2621 118.567 36.6043 118.567 35.6057C118.567 34.8626 118.138 34.4462 117.094 34.2239L116.241 34.0391C115.737 33.9302 115.551 33.7551 115.551 33.495C115.551 33.159 115.863 32.9413 116.334 32.9413C116.837 32.9413 117.14 33.2204 117.182 33.6324H118.436C118.408 32.6382 117.615 31.9711 116.334 31.9711C115.061 31.9711 114.241 32.6053 114.241 33.5706ZM119.601 30.911V32.0799H118.897V33.1212H119.601V35.7857C119.601 36.7746 120.058 37.1723 121.233 37.1723C121.507 37.1723 121.74 37.1484 121.88 37.1154V36.0978C121.796 36.112 121.671 36.1217 121.549 36.1217C121.149 36.1217 120.962 35.9369 120.962 35.5488V33.1212H121.885V32.0799H120.962V30.911H119.601ZM124.514 36.2351C124.052 36.2351 123.745 35.9986 123.745 35.6199C123.745 35.2603 124.034 35.0284 124.542 34.9906L125.595 34.9243V35.2933C125.595 35.8422 125.105 36.2351 124.514 36.2351ZM124.066 37.2337C124.691 37.2337 125.311 36.9168 125.59 36.3772H125.618V37.1532H126.933V33.6653C126.933 32.6431 126.099 31.9711 124.817 31.9711C123.493 31.9711 122.668 32.6479 122.617 33.6324H123.861C123.926 33.2582 124.248 33.0027 124.756 33.0027C125.269 33.0027 125.595 33.2773 125.595 33.7506V34.0866L124.336 34.1622C123.092 34.2381 122.393 34.7728 122.393 35.6955C122.393 36.6089 123.116 37.2337 124.066 37.2337ZM127.814 37.1532H129.175V34.3186C129.175 33.6039 129.566 33.1875 130.237 33.1875C130.433 33.1875 130.62 33.2204 130.731 33.2679V32.0515C130.638 32.0231 130.503 31.9995 130.344 31.9995C129.757 31.9995 129.333 32.3497 129.156 32.9933H129.128V32.0799H127.814V37.1532ZM131.207 33.5706C131.207 34.3328 131.696 34.8248 132.661 35.0332L133.514 35.2128C134.003 35.3266 134.176 35.4778 134.176 35.7475C134.176 36.079 133.859 36.2919 133.346 36.2919C132.805 36.2919 132.493 36.0554 132.409 35.6106H131.081C131.169 36.6089 131.966 37.2621 133.346 37.2621C134.632 37.2621 135.532 36.6043 135.532 35.6057C135.532 34.8626 135.103 34.4462 134.059 34.2239L133.206 34.0391C132.703 33.9302 132.516 33.7551 132.516 33.495C132.516 33.159 132.829 32.9413 133.299 32.9413C133.803 32.9413 134.106 33.2204 134.148 33.6324H135.402C135.374 32.6382 134.581 31.9711 133.299 31.9711C132.027 31.9711 131.207 32.6053 131.207 33.5706Z" fill="#121826"/>
<path d="M0.0917969 15.4256H17.2487H27.6676V4.94141L0.0917969 15.4256Z" fill="#FF9D28"/>
<path d="M27.668 4.94117V42L40.7071 0L27.668 4.94117Z" fill="#68C5ED"/>
<path d="M27.6669 15.4258H17.248L27.6669 41.9687V15.4258Z" fill="#044D80"/>
<path d="M0.0917969 15.4258L19.9314 22.2357L17.2487 15.4258H0.0917969Z" fill="#E54747"/>
</svg>
