<svg width="185" height="42" viewBox="0 0 185 42" fill="none" xmlns="http://www.w3.org/2000/svg">
<path d="M80.619 1.70117H56.582V25.7928H80.619V1.70117Z" fill="#00B67A"/>
<path d="M106.658 1.70117H82.6211V25.7928H106.658V1.70117Z" fill="#00B67A"/>
<path d="M132.699 1.70117H108.662V25.7928H132.699V1.70117Z" fill="#00B67A"/>
<path d="M158.74 1.70117H134.703V25.7928H158.74V1.70117Z" fill="#00B67A"/>
<path d="M184.78 1.70117H172.762V25.7928H184.78V1.70117Z" fill="#DCDCE6"/>
<path d="M172.761 1.70117H160.742V25.7928H172.761V1.70117Z" fill="#00B67A"/>
<path d="M68.6003 17.9389L72.256 17.0104L73.7834 21.7283L68.6003 17.9389ZM77.0132 11.8407H70.5785L68.6003 5.76758L66.6225 11.8407H60.1875L65.3954 15.605L63.4176 21.6781L68.6255 17.9138L71.8304 15.605L77.0132 11.8407Z" fill="white"/>
<path d="M94.6397 17.9389L98.295 17.0104L99.8225 21.7283L94.6397 17.9389ZM103.053 11.8407H96.6176L94.6397 5.76758L92.6615 11.8407H86.2266L91.4348 15.605L89.4566 21.6781L94.6645 17.9138L97.8695 15.605L103.053 11.8407Z" fill="white"/>
<path d="M120.68 17.9389L124.336 17.0104L125.864 21.7283L120.68 17.9389ZM129.093 11.8407H122.659L120.68 5.76758L118.703 11.8407H112.268L117.476 15.605L115.498 21.6781L120.706 17.9138L123.91 15.605L129.093 11.8407Z" fill="white"/>
<path d="M146.721 17.9389L150.377 17.0104L151.904 21.7283L146.721 17.9389ZM155.134 11.8407H148.699L146.721 5.76758L144.743 11.8407H138.309L143.517 15.605L141.538 21.6781L146.746 17.9138L149.951 15.605L155.134 11.8407Z" fill="white"/>
<path d="M172.76 17.9389L176.416 17.0104L177.944 21.7283L172.76 17.9389ZM181.174 11.8407H174.739L172.76 5.76758L170.783 11.8407H164.348L169.556 15.605L167.578 21.6781L172.786 17.9138L175.991 15.605L181.174 11.8407Z" fill="white"/>
<path d="M58.5021 32.6008H59.6708C60.3527 32.6008 60.7802 33.0111 60.7802 33.6492C60.7802 34.3007 60.3754 34.6974 59.6845 34.6974H58.5021V32.6008ZM58.5021 35.6954H59.6025L60.8255 38.1015H62.3806L60.9984 35.4901C61.7533 35.1939 62.1897 34.465 62.1897 33.6218C62.1897 32.323 61.3259 31.5253 59.8161 31.5253H57.1289V38.1015H58.5021V35.6954ZM64.8359 37.2174C64.3858 37.2174 64.0857 36.9896 64.0857 36.625C64.0857 36.2787 64.3675 36.0554 64.8632 36.019L65.891 35.9552V36.3105C65.891 36.839 65.4136 37.2174 64.8359 37.2174ZM64.3995 38.179C65.0088 38.179 65.6135 37.8738 65.8863 37.3542H65.9136V38.1015H67.1959V34.7428C67.1959 33.7584 66.382 33.1113 65.1314 33.1113C63.8401 33.1113 63.0353 33.7631 62.9853 34.711H64.1993C64.2632 34.3508 64.5767 34.1047 65.0724 34.1047C65.5725 34.1047 65.891 34.3691 65.891 34.8249V35.1485L64.6633 35.2213C63.449 35.2944 62.7671 35.8093 62.7671 36.6978C62.7671 37.5773 63.472 38.179 64.3995 38.179ZM68.4099 32.0906V33.2162H67.7233V34.2189H68.4099V36.7846C68.4099 37.7369 68.8553 38.1199 70.0013 38.1199C70.2695 38.1199 70.497 38.0969 70.6333 38.0651V37.0851C70.5513 37.0988 70.4287 37.1082 70.3105 37.1082C69.9194 37.1082 69.7375 36.9302 69.7375 36.5566V34.2189H70.6379V33.2162H69.7375V32.0906H68.4099ZM73.4797 34.0957C74.0707 34.0957 74.4755 34.5241 74.5028 35.1485H72.4339C72.4793 34.5378 72.8977 34.0957 73.4797 34.0957ZM74.5208 36.6066C74.3982 36.9806 74.0254 37.222 73.5387 37.222C72.8614 37.222 72.4203 36.7435 72.4203 36.0463V35.9642H75.7804V35.5585C75.7804 34.073 74.8846 33.1113 73.466 33.1113C72.0245 33.1113 71.1153 34.123 71.1153 35.6817C71.1153 37.2447 72.0155 38.2064 73.516 38.2064C74.721 38.2064 75.5938 37.5639 75.7394 36.6066H74.5208ZM78.2766 38.179C78.9952 38.179 79.5589 37.8007 79.7954 37.2631H79.8181V38.1015H81.1277V31.5253H79.7998V34.0546H79.7725C79.5363 33.5123 78.9906 33.1387 78.2856 33.1387C77.0627 33.1387 76.2898 34.1003 76.2898 35.6497C76.2898 37.213 77.058 38.179 78.2766 38.179ZM78.7267 34.2052C79.386 34.2052 79.8091 34.7702 79.8091 35.6587C79.8091 36.5522 79.386 37.1082 78.7267 37.1082C78.0584 37.1082 77.6493 36.5566 77.6493 35.6587C77.6493 34.7655 78.0584 34.2052 78.7267 34.2052ZM88.3207 36.9622H85.347V35.3034H88.1524V34.2459H85.347V32.6602H88.3207V31.5253H83.9741V38.1015H88.3207V36.9622ZM91.2037 36.4063L92.1312 38.1015H93.5724L92.0629 35.6316L93.586 33.2162H92.1402L91.2763 34.866H91.249L90.3715 33.2162H88.8757L90.3941 35.668L88.8663 38.1015H90.2622L91.1764 36.4063H91.2037ZM98.4103 35.0346C98.3513 33.927 97.5148 33.1113 96.1962 33.1113C94.7364 33.1113 93.8042 34.0866 93.8042 35.6543C93.8042 37.2494 94.7364 38.2064 96.2052 38.2064C97.4875 38.2064 98.3467 37.4634 98.415 36.3105H97.1783C97.0964 36.8437 96.7509 37.1626 96.2188 37.1626C95.5596 37.1626 95.1501 36.616 95.1501 35.6543C95.1501 34.711 95.5596 34.1548 96.2142 34.1548C96.7599 34.1548 97.101 34.5194 97.1783 35.0346H98.4103ZM101.243 34.0957C101.834 34.0957 102.239 34.5241 102.266 35.1485H100.197C100.243 34.5378 100.661 34.0957 101.243 34.0957ZM102.284 36.6066C102.162 36.9806 101.789 37.222 101.302 37.222C100.625 37.222 100.184 36.7435 100.184 36.0463V35.9642H103.544V35.5585C103.544 34.073 102.648 33.1113 101.229 33.1113C99.7882 33.1113 98.8787 34.123 98.8787 35.6817C98.8787 37.2447 99.7792 38.2064 101.279 38.2064C102.484 38.2064 103.357 37.5639 103.503 36.6066H102.284ZM104.262 38.1015H105.59V31.5253H104.262V38.1015ZM106.517 38.1015H107.845V31.5253H106.517V38.1015ZM110.928 34.0957C111.519 34.0957 111.924 34.5241 111.951 35.1485H109.882C109.928 34.5378 110.346 34.0957 110.928 34.0957ZM111.969 36.6066C111.846 36.9806 111.474 37.222 110.987 37.222C110.31 37.222 109.868 36.7435 109.868 36.0463V35.9642H113.229V35.5585C113.229 34.073 112.333 33.1113 110.915 33.1113C109.473 33.1113 108.564 34.123 108.564 35.6817C108.564 37.2447 109.464 38.2064 110.965 38.2064C112.17 38.2064 113.042 37.5639 113.188 36.6066H111.969ZM113.916 38.1015H115.243V35.2987C115.243 34.6653 115.621 34.2279 116.216 34.2279C116.812 34.2279 117.112 34.5925 117.112 35.2306V38.1015H118.44V34.9525C118.44 33.8085 117.83 33.125 116.748 33.125C115.998 33.125 115.484 33.4806 115.225 34.0866H115.197V33.2162H113.916V38.1015ZM119.635 32.0906V33.2162H118.949V34.2189H119.635V36.7846C119.635 37.7369 120.081 38.1199 121.227 38.1199C121.495 38.1199 121.722 38.0969 121.859 38.0651V37.0851C121.777 37.0988 121.654 37.1082 121.536 37.1082C121.145 37.1082 120.963 36.9302 120.963 36.5566V34.2189H121.863V33.2162H120.963V32.0906H119.635ZM126.097 36.9896C126.983 36.9896 127.72 36.2557 127.72 35.3672C127.72 34.4786 126.983 33.7401 126.097 33.7401C125.21 33.7401 124.478 34.4786 124.478 35.3672C124.478 36.2557 125.21 36.9896 126.097 36.9896ZM133.626 38.1015H134.931V36.8938H135.795V35.7956H134.931V31.5253H132.994C131.648 33.5077 130.935 34.6563 130.362 35.7455V36.8938H133.626V38.1015ZM131.557 35.7956C132.08 34.8159 132.676 33.8816 133.626 32.5096H133.653V35.832H131.557V35.7956ZM137.359 38.1563C137.764 38.1563 138.091 37.8281 138.091 37.4224C138.091 37.0123 137.764 36.6888 137.359 36.6888C136.95 36.6888 136.627 37.0123 136.627 37.4224C136.627 37.8281 136.95 38.1563 137.359 38.1563ZM141.497 38.2474C143.202 38.2474 144.234 36.9349 144.234 34.7565C144.234 32.3547 142.943 31.375 141.497 31.375C140.033 31.375 138.969 32.3457 138.969 33.7083C138.969 34.9889 139.928 35.8547 141.147 35.8547C142.006 35.8547 142.656 35.4263 142.893 34.7885H142.92C142.929 36.2013 142.488 37.1582 141.502 37.1582C140.951 37.1582 140.547 36.9075 140.401 36.438H139.046C139.219 37.5045 140.21 38.2474 141.497 38.2474ZM141.502 34.8339C140.815 34.8339 140.306 34.3418 140.306 33.6536C140.306 32.9881 140.838 32.4732 141.515 32.4732C142.188 32.4732 142.72 32.9974 142.72 33.6763C142.72 34.3508 142.193 34.8339 141.502 34.8339ZM145.848 39.5143L148.176 31.5253H146.953L144.621 39.5143H145.848ZM151.159 38.2474C152.664 38.2474 153.696 37.3042 153.696 35.9141C153.696 34.6606 152.801 33.7584 151.55 33.7584C150.886 33.7584 150.345 34.0272 150.072 34.4693H150.045L150.204 32.6191H153.301V31.5253H149.113L148.813 35.3855H150.009C150.232 34.9889 150.641 34.7428 151.168 34.7428C151.887 34.7428 152.387 35.2396 152.387 35.9458C152.387 36.6614 151.887 37.1582 151.164 37.1582C150.532 37.1582 150.045 36.7846 149.968 36.215H148.699C148.736 37.4087 149.754 38.2474 151.159 38.2474ZM156.193 34.6516C156.193 35.3855 156.67 35.8594 157.611 36.06L158.443 36.233C158.921 36.3425 159.089 36.4881 159.089 36.7479C159.089 37.0671 158.78 37.2721 158.28 37.2721C157.752 37.2721 157.448 37.0444 157.366 36.616H156.07C156.156 37.5773 156.934 38.2064 158.28 38.2064C159.534 38.2064 160.412 37.573 160.412 36.6113C160.412 35.8958 159.994 35.4947 158.975 35.2807L158.143 35.1027C157.652 34.9979 157.47 34.8293 157.47 34.5788C157.47 34.2553 157.775 34.0456 158.234 34.0456C158.725 34.0456 159.021 34.3144 159.062 34.711H160.285C160.257 33.7538 159.485 33.1113 158.234 33.1113C156.993 33.1113 156.193 33.722 156.193 34.6516ZM161.421 32.0906V33.2162H160.735V34.2189H161.421V36.7846C161.421 37.7369 161.867 38.1199 163.013 38.1199C163.281 38.1199 163.509 38.0969 163.645 38.0651V37.0851C163.563 37.0988 163.44 37.1082 163.322 37.1082C162.931 37.1082 162.749 36.9302 162.749 36.5566V34.2189H163.649V33.2162H162.749V32.0906H161.421ZM166.214 37.2174C165.764 37.2174 165.464 36.9896 165.464 36.625C165.464 36.2787 165.746 36.0554 166.241 36.019L167.269 35.9552V36.3105C167.269 36.839 166.791 37.2174 166.214 37.2174ZM165.778 38.179C166.387 38.179 166.992 37.8738 167.264 37.3542H167.292V38.1015H168.574V34.7428C168.574 33.7584 167.76 33.1113 166.51 33.1113C165.218 33.1113 164.413 33.7631 164.363 34.711H165.577C165.641 34.3508 165.955 34.1047 166.451 34.1047C166.951 34.1047 167.269 34.3691 167.269 34.8249V35.1485L166.041 35.2213C164.827 35.2944 164.145 35.8093 164.145 36.6978C164.145 37.5773 164.85 38.179 165.778 38.179ZM169.433 38.1015H170.761V35.3718C170.761 34.6837 171.143 34.2826 171.798 34.2826C171.988 34.2826 172.17 34.3144 172.28 34.3601V33.1888C172.189 33.1614 172.057 33.1387 171.902 33.1387C171.329 33.1387 170.915 33.4759 170.743 34.0957H170.716V33.2162H169.433V38.1015ZM172.743 34.6516C172.743 35.3855 173.221 35.8594 174.162 36.06L174.994 36.233C175.471 36.3425 175.64 36.4881 175.64 36.7479C175.64 37.0671 175.331 37.2721 174.831 37.2721C174.303 37.2721 173.998 37.0444 173.916 36.616H172.62C172.707 37.5773 173.485 38.2064 174.831 38.2064C176.085 38.2064 176.963 37.573 176.963 36.6113C176.963 35.8958 176.545 35.4947 175.526 35.2807L174.694 35.1027C174.203 34.9979 174.021 34.8293 174.021 34.5788C174.021 34.2553 174.326 34.0456 174.785 34.0456C175.276 34.0456 175.571 34.3144 175.612 34.711H176.836C176.808 33.7538 176.035 33.1113 174.785 33.1113C173.544 33.1113 172.743 33.722 172.743 34.6516Z" fill="#121826"/>
<path d="M42.4324 15.4567H26.2291L21.2241 0L16.2035 15.4567L0 15.441L13.1223 25.0035L8.10176 40.4444L21.2241 30.8977L34.3308 40.4444L29.3259 25.0035L42.4324 15.4567Z" fill="#00B67A"/>
<path d="M30.4525 28.4997L29.3264 25.0039L21.2246 30.8981L30.4525 28.4997Z" fill="#005128"/>
</svg>
